<svg width="1760" height="35" viewBox="0 0 1760 35" fill="none" xmlns="http://www.w3.org/2000/svg">
<path d="M45.2427 8.46963C47.7948 8.87317 50.0964 9.48787 50.0964 11.8528C50.0964 14.2177 47.5443 15.1093 45.0617 15.1093C43.4237 15.1093 41.3495 14.5274 40.5839 13.2699C40.5088 13.1274 40.4714 12.9678 40.4752 12.8064C40.479 12.6451 40.5239 12.4875 40.6055 12.3488C40.6872 12.2101 40.8028 12.095 40.9413 12.0147C41.0797 11.9344 41.2363 11.8916 41.3959 11.8903H42.9411C42.9411 13.725 44.129 14.3256 45.0803 14.3256C46.0315 14.3256 47.2937 13.725 47.2937 11.8903C47.2937 11.1067 46.2311 10.8346 44.8993 10.6328C42.3286 10.2339 40.259 9.45502 40.259 7.34817C40.259 5.1287 43.0432 4.25593 45.006 4.18555C46.4631 4.18555 48.7832 4.80024 49.5025 6.41909C49.5492 6.55897 49.5627 6.70803 49.5417 6.85416C49.5208 7.00028 49.466 7.13935 49.3819 7.26005C49.2978 7.38075 49.1868 7.47969 49.0577 7.54881C48.9287 7.61794 48.7854 7.6553 48.6394 7.65786H47.006C47.006 5.58386 45.7438 4.96447 45.0432 4.96447C44.2357 4.96447 43.0478 5.58386 43.0478 7.31063C43.0478 8.07548 44.2543 8.34763 45.2241 8.4931L45.2427 8.46963Z" fill="white"/>
<path d="M59.0615 14.8371C59.5629 14.0149 59.8011 13.0563 59.7437 12.0921V9.50663C59.7437 6.79916 59.456 4.95977 57.7298 4.95977C55.5349 4.95977 54.8528 6.79916 54.8528 9.50663V12.0921C54.8311 12.8701 54.9718 13.6439 55.2658 14.3632V14.4007C55.3491 14.5647 55.4453 14.7216 55.5535 14.87L55.5906 14.9028H51.2705L51.3448 14.8136C51.8461 13.9914 52.0843 13.0328 52.0269 12.0686V3.30808C52.0269 1.32323 51.2705 0.492688 51.2705 0.492688H52.5512C52.8536 0.490825 53.1533 0.549597 53.4331 0.665605C53.7129 0.781614 53.9671 0.952557 54.1811 1.16855C54.3952 1.38454 54.5647 1.6413 54.68 1.92397C54.7953 2.20664 54.854 2.50962 54.8528 2.81539V5.7997C55.4792 4.88939 56.217 4.18085 57.7112 4.18085C61.3631 4.18085 62.5325 6.63493 62.5325 9.65209V12.0921C62.5108 12.8701 62.6515 13.6439 62.9455 14.3632V14.4007C63.0288 14.5647 63.125 14.7216 63.2331 14.87L63.2656 14.9075H58.9502L59.0244 14.8136L59.0615 14.8371Z" fill="white"/>
<path d="M75.7016 12.308C75.6713 13.2181 75.937 14.1131 76.4579 14.8559H74.5322C73.7758 14.8559 72.9128 14.2365 72.9128 13.4717C72.2678 14.382 71.5207 15.0905 70.0358 15.0905C66.3885 15.0905 64.3561 12.6364 64.3561 9.61457C64.3561 6.59272 66.3885 4.14333 70.0358 4.14333C70.6538 4.13892 71.2683 4.2372 71.8548 4.43425C72.5909 4.74879 73.3837 4.90457 74.1827 4.89164C74.9818 4.87872 75.7693 4.69736 76.4951 4.35918C75.9535 5.19253 75.6886 6.17867 75.7387 7.17457L75.7016 12.308ZM70.0172 14.2553C72.2121 14.2553 72.8942 11.346 72.8942 9.59581C72.8942 6.90711 72.2121 4.92695 70.0172 4.92695C68.291 4.92695 67.1402 6.90711 67.1402 9.61927C67.1402 12.3314 68.291 14.3116 70.0172 14.3116V14.2553Z" fill="white"/>
<path d="M89.1259 12.0358C89.1259 14.016 89.8822 14.8512 89.8822 14.8512H88.8567C88.3476 14.8546 87.8485 14.7083 87.4201 14.43C86.9917 14.1518 86.6525 13.7536 86.4438 13.284C86.011 13.8525 85.4519 14.3101 84.8119 14.6199C84.1719 14.9296 83.4688 15.0828 82.7594 15.067C79.6133 15.067 77.7758 12.613 77.7758 9.59111C77.7758 6.56925 79.3952 4.12455 82.778 4.12455C83.4532 4.10802 84.1235 4.24487 84.7394 4.52504C85.3554 4.80521 85.9013 5.22156 86.3371 5.7434V3.28463C86.3371 1.29978 85.5807 0.469238 85.5807 0.469238H86.5876C87.8498 0.469238 89.1259 1.50624 89.1259 2.77786V12.0358ZM83.4415 14.2553C85.6178 14.2553 86.3185 11.346 86.3185 9.5958C86.3185 6.9071 85.6364 4.92694 83.4415 4.92694C81.7154 4.92694 80.5831 6.9071 80.5831 9.61926C80.5831 12.3314 81.7154 14.3116 83.4415 14.3116V14.2553Z" fill="white"/>
<path d="M102.55 4.34509C101.633 5.27386 100.889 6.36282 100.355 7.55933L96.1791 16.9815C95.9853 17.5258 95.6317 17.9972 95.1657 18.3326C94.6996 18.6681 94.1433 18.8515 93.5713 18.8584C92.908 18.8458 92.2678 18.6097 91.7523 18.1874C91.3418 17.7715 91.1043 17.2123 91.0887 16.6249C91.0863 16.468 91.1147 16.3123 91.1724 16.1666C91.23 16.021 91.3158 15.8884 91.4246 15.7766C91.5334 15.6648 91.6632 15.576 91.8063 15.5154C91.9494 15.4548 92.103 15.4236 92.2581 15.4237H93.8775C93.1212 16.1697 93.033 18.042 93.6966 18.042C94.7917 18.042 95.5109 16.3668 95.5109 16.3668C95.8729 15.5691 95.6037 14.3867 95.2418 13.5843L92.6618 7.74233C92.0995 6.4902 91.3341 5.34196 90.3973 4.34509H94.9819C94.9448 4.56047 94.9262 4.7787 94.9263 4.99732C94.9224 5.6449 95.0586 6.28549 95.3253 6.87425L97.5341 11.895L99.8542 6.63964C100.176 5.92797 100.27 5.13228 100.123 4.36386L102.55 4.34509Z" fill="white"/>
<path d="M46.6441 19.8532C49.2519 19.8532 49.8273 21.2187 49.8273 23.0721C49.8285 23.2237 49.8002 23.3741 49.744 23.5146C49.6877 23.6551 49.6047 23.7831 49.4995 23.8911C49.3944 23.9992 49.2692 24.0852 49.1312 24.1444C48.9932 24.2035 48.845 24.2346 48.6951 24.2358H47.0431C47.0431 24.2358 48.4074 20.6697 46.6812 20.6697C44.4863 20.6697 43.8228 22.0351 43.8228 24.7285V27.7832C43.8005 28.5612 43.9412 29.3352 44.2358 30.0543V30.0918C44.3179 30.2565 44.4141 30.4135 44.5235 30.5611L44.5559 30.5986H40.2405L40.3147 30.5048C40.5143 30.2326 40.9968 29.3786 40.9968 27.7598V22.9032C41.0069 22.1847 40.8858 21.4704 40.6395 20.7964C40.5477 20.5507 40.4261 20.3174 40.2776 20.1019C41.8264 20.7674 43.5725 20.7876 45.136 20.1582C45.6269 19.9586 46.1521 19.8597 46.6812 19.8673L46.6441 19.8532Z" fill="white"/>
<path d="M58.5928 30.5658C59.0941 29.7436 59.3324 28.7849 59.2749 27.8208V25.2353C59.2749 22.5278 58.9872 20.6884 57.261 20.6884C55.0662 20.6884 54.3841 22.5278 54.3841 25.2353V27.8208C54.3623 28.5987 54.5031 29.3726 54.797 30.0918V30.1294C54.8804 30.2933 54.9766 30.4502 55.0847 30.5986L55.1219 30.6315H50.8064L50.876 30.5423C51.0755 30.2701 51.5581 29.4161 51.5581 27.7973V19.0367C51.5581 17.0519 50.8064 16.2213 50.8064 16.2213H52.0825C52.6876 16.2226 53.2676 16.4662 53.6955 16.8989C54.1233 17.3316 54.3643 17.9181 54.3655 18.53V21.5143C54.9966 20.604 55.7297 19.8954 57.2239 19.8954C60.8758 19.8954 62.0452 22.3495 62.0452 25.3714V27.8067C62.0234 28.5846 62.1642 29.3585 62.4581 30.0778V30.1153C62.5415 30.2792 62.6377 30.4361 62.7458 30.5845L62.783 30.6221H58.4629L58.5371 30.5282L58.5928 30.5658Z" fill="white"/>
<path d="M74.3002 20.0737C73.3817 21.0033 72.638 22.094 72.1054 23.2927L67.9291 32.7102C67.7382 33.2563 67.3853 33.7296 66.9186 34.0655C66.4519 34.4014 65.8941 34.5835 65.3213 34.5871C64.658 34.5745 64.0178 34.3383 63.5023 33.9161C63.091 33.5007 62.8534 32.9412 62.8387 32.3535C62.8363 32.1967 62.8647 32.0409 62.9224 31.8953C62.98 31.7496 63.0658 31.6171 63.1746 31.5053C63.2834 31.3935 63.4132 31.3047 63.5563 31.2441C63.6994 31.1835 63.8529 31.1523 64.0081 31.1523H65.6275C64.8712 31.8984 64.783 33.7706 65.4466 33.7706C66.5417 33.7706 67.2609 32.1002 67.2609 32.1002C67.6229 31.2978 67.3537 30.1153 66.9918 29.3176L64.4257 23.4616C63.8634 22.2095 63.0981 21.0612 62.1613 20.0644H66.7458C66.7089 20.2798 66.6903 20.498 66.6902 20.7166C66.6857 21.3642 66.822 22.005 67.0892 22.5935L69.298 27.6143L71.6181 22.3589C71.9403 21.6472 72.0344 20.8515 71.8873 20.0831L74.3002 20.0737Z" fill="white"/>
<path d="M89.0516 30.6033C89.5556 29.7803 89.7954 28.8199 89.7384 27.8536V24.8177C89.7384 22.129 89.2744 20.7635 88.1375 20.7635C86.2814 20.7635 85.5807 22.0164 85.5297 24.5643V27.8489C85.5076 28.6284 85.6483 29.4039 85.9427 30.1247V30.1622C86.0241 30.3272 86.1204 30.4843 86.2304 30.6315L86.2628 30.669H81.9891L82.0634 30.5799C82.5647 29.7577 82.803 28.799 82.7455 27.8348V24.7661C82.7455 22.0727 82.2583 20.7072 81.1446 20.7072C79.2374 20.7072 78.5182 22.0727 78.5182 24.7661V27.8208C78.4992 28.5985 78.6399 29.3718 78.9312 30.0919V30.1294C79.0164 30.2922 79.1125 30.449 79.2189 30.5986L79.256 30.6315H74.9406L75.0102 30.5423C75.2097 30.2702 75.6969 29.4162 75.6969 27.7973V22.9408C75.7058 22.2219 75.5831 21.5076 75.335 20.8339C75.2429 20.5892 75.1229 20.3562 74.9777 20.1394C75.6998 20.4687 76.4814 20.6437 77.2734 20.6534C78.0655 20.6631 78.8511 20.5073 79.5808 20.1958C80.159 19.9975 80.7661 19.8992 81.3766 19.9048C82.0416 19.8786 82.6996 20.0505 83.2688 20.3992C83.8381 20.7479 84.2934 21.2581 84.5784 21.8662C84.9536 21.268 85.4715 20.7748 86.0845 20.4321C86.6975 20.0893 87.386 19.908 88.0865 19.9048C91.2326 19.9048 92.5643 22.3589 92.5643 25.3808V27.8161C92.5426 28.594 92.6833 29.3679 92.9773 30.0872V30.1247C93.0607 30.2886 93.1569 30.4455 93.265 30.5939L93.3021 30.6315H88.9867L89.0563 30.5376L89.0516 30.6033Z" fill="white"/>
<path d="M101.13 29.8385C103.863 29.8385 105.733 27.2389 105.733 27.2389C104.996 29.1815 102.819 30.8192 100.165 30.8192C96.6014 30.8192 94.374 28.3275 94.374 25.3104C94.374 22.2932 96.6014 19.872 100.165 19.872C102.986 19.872 105.2 21.3829 105.826 23.8558C105.891 24.097 105.899 24.3502 105.851 24.5953C105.802 24.8404 105.698 25.0708 105.546 25.2682C105.395 25.4657 105.2 25.6248 104.977 25.7331C104.754 25.8414 104.51 25.8959 104.262 25.8922H97.3345C97.7475 27.8536 98.9354 29.8385 101.149 29.8385H101.13ZM99.2046 20.7823C97.3484 21.2891 97.0468 23.3114 97.1721 25.0758H102.495C102.586 25.0696 102.675 25.0444 102.756 25.0019C102.837 24.9594 102.908 24.9003 102.966 24.8285C103.023 24.7567 103.066 24.6737 103.09 24.5846C103.114 24.4956 103.12 24.4024 103.107 24.3109C102.782 22.2369 101.33 20.2004 99.2231 20.7823H99.2046Z" fill="white"/>
<path d="M112.151 24.1983C114.708 24.6018 117.009 25.2165 117.009 27.5814C117.009 29.9464 114.452 30.8379 111.97 30.8379C110.337 30.8379 108.258 30.2561 107.492 29.0032C107.41 28.8599 107.367 28.6973 107.368 28.5319C107.368 28.3664 107.412 28.204 107.494 28.0611C107.577 27.9182 107.695 27.7998 107.837 27.7181C107.979 27.6363 108.141 27.594 108.304 27.5955H109.831C109.831 29.4302 111.019 30.0308 111.97 30.0308C112.921 30.0308 114.183 29.4302 114.183 27.5955C114.183 26.8119 113.121 26.5398 111.794 26.3427C109.218 25.9391 107.153 25.1602 107.153 23.0299C107.153 20.8151 109.937 19.9377 111.9 19.8673C113.357 19.8673 115.678 20.4867 116.397 22.1055C116.443 22.2451 116.455 22.3937 116.434 22.5392C116.413 22.6847 116.358 22.8231 116.274 22.9432C116.19 23.0633 116.079 23.1617 115.95 23.2306C115.822 23.2995 115.679 23.3368 115.534 23.3396H113.896C113.896 21.2656 112.638 20.6462 111.933 20.6462C111.125 20.6462 109.937 21.2656 109.937 22.9924C109.937 23.7572 111.144 24.0294 112.114 24.1748L112.151 24.1983Z" fill="white"/>
<path d="M13.2757 19.7585L8.22 24.8156L9.19043 25.7785L14.2774 20.6901C14.751 20.9988 15.2843 21.2042 15.8426 21.2928V31H17.2043V21.2928C17.7842 21.1934 18.3364 20.9719 18.8243 20.6431L23.8252 25.6454L24.7957 24.6825L19.8026 19.688C20.1792 19.1765 20.4311 18.5841 20.5383 17.958H30V16.5958H20.5148C20.4261 16.0374 20.2208 15.5039 19.9122 15.0302L24.6078 10.3331L23.6452 9.37025L18.9496 14.0673C18.4241 13.6605 17.8054 13.3914 17.1496 13.2844V4H15.8191V13.2609C15.1932 13.3682 14.6009 13.6201 14.0896 13.9968L9.32348 9.22934L8.35304 10.1844L13.1348 14.9675C12.8028 15.4539 12.5811 16.0069 12.4852 16.588H3V17.9501H12.4852C12.5932 18.6096 12.865 19.2314 13.2757 19.7585ZM16.5 14.5605C17.0361 14.5651 17.5588 14.7283 18.0023 15.0296C18.4458 15.3309 18.7902 15.7568 18.9921 16.2535C19.1941 16.7503 19.2445 17.2957 19.1371 17.8211C19.0297 18.3465 18.7692 18.8283 18.3885 19.2059C18.0078 19.5834 17.5239 19.8398 16.9977 19.9427C16.4716 20.0457 15.9268 19.9905 15.4319 19.7842C14.9371 19.578 14.5143 19.2298 14.217 18.7836C13.9196 18.3374 13.7609 17.8131 13.7609 17.2769C13.7609 16.9182 13.8319 16.563 13.9698 16.2319C14.1077 15.9008 14.3099 15.6003 14.5645 15.3477C14.8192 15.0952 15.1214 14.8956 15.4536 14.7605C15.7857 14.6253 16.1414 14.5574 16.5 14.5605Z" fill="#FADCD9" stroke="#FADCD9" stroke-miterlimit="10"/>
<path d="M658.478 11.454V12.786H653.024V17.016H657.452V18.348H653.024V24H651.386V11.454H658.478ZM669.204 14.136V24H667.566V22.542C667.254 23.046 666.816 23.442 666.252 23.73C665.7 24.006 665.088 24.144 664.416 24.144C663.648 24.144 662.958 23.988 662.346 23.676C661.734 23.352 661.248 22.872 660.888 22.236C660.54 21.6 660.366 20.826 660.366 19.914V14.136H661.986V19.698C661.986 20.67 662.232 21.42 662.724 21.948C663.216 22.464 663.888 22.722 664.74 22.722C665.616 22.722 666.306 22.452 666.81 21.912C667.314 21.372 667.566 20.586 667.566 19.554V14.136H669.204ZM673.608 15.738C673.896 15.174 674.304 14.736 674.832 14.424C675.372 14.112 676.026 13.956 676.794 13.956V15.648H676.362C674.526 15.648 673.608 16.644 673.608 18.636V24H671.97V14.136H673.608V15.738ZM683.491 13.956C684.691 13.956 685.663 14.322 686.407 15.054C687.151 15.774 687.523 16.818 687.523 18.186V24H685.903V18.42C685.903 17.436 685.657 16.686 685.165 16.17C684.673 15.642 684.001 15.378 683.149 15.378C682.285 15.378 681.595 15.648 681.079 16.188C680.575 16.728 680.323 17.514 680.323 18.546V24H678.685V14.136H680.323V15.54C680.647 15.036 681.085 14.646 681.637 14.37C682.201 14.094 682.819 13.956 683.491 13.956ZM691.045 12.534C690.733 12.534 690.469 12.426 690.253 12.21C690.037 11.994 689.929 11.73 689.929 11.418C689.929 11.106 690.037 10.842 690.253 10.626C690.469 10.41 690.733 10.302 691.045 10.302C691.345 10.302 691.597 10.41 691.801 10.626C692.017 10.842 692.125 11.106 692.125 11.418C692.125 11.73 692.017 11.994 691.801 12.21C691.597 12.426 691.345 12.534 691.045 12.534ZM691.837 14.136V24H690.199V14.136H691.837ZM696.626 15.486V21.3C696.626 21.78 696.728 22.122 696.932 22.326C697.136 22.518 697.49 22.614 697.994 22.614H699.2V24H697.724C696.812 24 696.128 23.79 695.672 23.37C695.216 22.95 694.988 22.26 694.988 21.3V15.486H693.71V14.136H694.988V11.652H696.626V14.136H699.2V15.486H696.626ZM709.933 14.136V24H708.295V22.542C707.983 23.046 707.545 23.442 706.981 23.73C706.429 24.006 705.817 24.144 705.145 24.144C704.377 24.144 703.687 23.988 703.075 23.676C702.463 23.352 701.977 22.872 701.617 22.236C701.269 21.6 701.095 20.826 701.095 19.914V14.136H702.715V19.698C702.715 20.67 702.961 21.42 703.453 21.948C703.945 22.464 704.617 22.722 705.469 22.722C706.345 22.722 707.035 22.452 707.539 21.912C708.043 21.372 708.295 20.586 708.295 19.554V14.136H709.933ZM714.337 15.738C714.625 15.174 715.033 14.736 715.561 14.424C716.101 14.112 716.755 13.956 717.523 13.956V15.648H717.091C715.255 15.648 714.337 16.644 714.337 18.636V24H712.699V14.136H714.337V15.738ZM728.413 18.69C728.413 19.002 728.395 19.332 728.359 19.68H720.475C720.535 20.652 720.865 21.414 721.465 21.966C722.077 22.506 722.815 22.776 723.679 22.776C724.387 22.776 724.975 22.614 725.443 22.29C725.923 21.954 726.259 21.51 726.451 20.958H728.215C727.951 21.906 727.423 22.68 726.631 23.28C725.839 23.868 724.855 24.162 723.679 24.162C722.743 24.162 721.903 23.952 721.159 23.532C720.427 23.112 719.851 22.518 719.431 21.75C719.011 20.97 718.801 20.07 718.801 19.05C718.801 18.03 719.005 17.136 719.413 16.368C719.821 15.6 720.391 15.012 721.123 14.604C721.867 14.184 722.719 13.974 723.679 13.974C724.615 13.974 725.443 14.178 726.163 14.586C726.883 14.994 727.435 15.558 727.819 16.278C728.215 16.986 728.413 17.79 728.413 18.69ZM726.721 18.348C726.721 17.724 726.583 17.19 726.307 16.746C726.031 16.29 725.653 15.948 725.173 15.72C724.705 15.48 724.183 15.36 723.607 15.36C722.779 15.36 722.071 15.624 721.483 16.152C720.907 16.68 720.577 17.412 720.493 18.348H726.721Z" fill="white"/>
<path d="M735 17L738.5 20L742 17" stroke="white"/>
<path d="M795.364 24.126C794.536 24.126 793.792 23.982 793.132 23.694C792.484 23.394 791.974 22.986 791.602 22.47C791.23 21.942 791.038 21.336 791.026 20.652H792.772C792.832 21.24 793.072 21.738 793.492 22.146C793.924 22.542 794.548 22.74 795.364 22.74C796.144 22.74 796.756 22.548 797.2 22.164C797.656 21.768 797.884 21.264 797.884 20.652C797.884 20.172 797.752 19.782 797.488 19.482C797.224 19.182 796.894 18.954 796.498 18.798C796.102 18.642 795.568 18.474 794.896 18.294C794.068 18.078 793.402 17.862 792.898 17.646C792.406 17.43 791.98 17.094 791.62 16.638C791.272 16.17 791.098 15.546 791.098 14.766C791.098 14.082 791.272 13.476 791.62 12.948C791.968 12.42 792.454 12.012 793.078 11.724C793.714 11.436 794.44 11.292 795.256 11.292C796.432 11.292 797.392 11.586 798.136 12.174C798.892 12.762 799.318 13.542 799.414 14.514H797.614C797.554 14.034 797.302 13.614 796.858 13.254C796.414 12.882 795.826 12.696 795.094 12.696C794.41 12.696 793.852 12.876 793.42 13.236C792.988 13.584 792.772 14.076 792.772 14.712C792.772 15.168 792.898 15.54 793.15 15.828C793.414 16.116 793.732 16.338 794.104 16.494C794.488 16.638 795.022 16.806 795.706 16.998C796.534 17.226 797.2 17.454 797.704 17.682C798.208 17.898 798.64 18.24 799 18.708C799.36 19.164 799.54 19.788 799.54 20.58C799.54 21.192 799.378 21.768 799.054 22.308C798.73 22.848 798.25 23.286 797.614 23.622C796.978 23.958 796.228 24.126 795.364 24.126ZM806.846 13.956C807.59 13.956 808.262 14.118 808.862 14.442C809.462 14.754 809.93 15.228 810.266 15.864C810.614 16.5 810.788 17.274 810.788 18.186V24H809.168V18.42C809.168 17.436 808.922 16.686 808.43 16.17C807.938 15.642 807.266 15.378 806.414 15.378C805.55 15.378 804.86 15.648 804.344 16.188C803.84 16.728 803.588 17.514 803.588 18.546V24H801.95V10.68H803.588V15.54C803.912 15.036 804.356 14.646 804.92 14.37C805.496 14.094 806.138 13.956 806.846 13.956ZM817.766 24.162C816.842 24.162 816.002 23.952 815.246 23.532C814.502 23.112 813.914 22.518 813.482 21.75C813.062 20.97 812.852 20.07 812.852 19.05C812.852 18.042 813.068 17.154 813.5 16.386C813.944 15.606 814.544 15.012 815.3 14.604C816.056 14.184 816.902 13.974 817.838 13.974C818.774 13.974 819.62 14.184 820.376 14.604C821.132 15.012 821.726 15.6 822.158 16.368C822.602 17.136 822.824 18.03 822.824 19.05C822.824 20.07 822.596 20.97 822.14 21.75C821.696 22.518 821.09 23.112 820.322 23.532C819.554 23.952 818.702 24.162 817.766 24.162ZM817.766 22.722C818.354 22.722 818.906 22.584 819.422 22.308C819.938 22.032 820.352 21.618 820.664 21.066C820.988 20.514 821.15 19.842 821.15 19.05C821.15 18.258 820.994 17.586 820.682 17.034C820.37 16.482 819.962 16.074 819.458 15.81C818.954 15.534 818.408 15.396 817.82 15.396C817.22 15.396 816.668 15.534 816.164 15.81C815.672 16.074 815.276 16.482 814.976 17.034C814.676 17.586 814.526 18.258 814.526 19.05C814.526 19.854 814.67 20.532 814.958 21.084C815.258 21.636 815.654 22.05 816.146 22.326C816.638 22.59 817.178 22.722 817.766 22.722ZM826.616 15.954C826.94 15.39 827.42 14.922 828.056 14.55C828.704 14.166 829.454 13.974 830.306 13.974C831.182 13.974 831.974 14.184 832.682 14.604C833.402 15.024 833.966 15.618 834.374 16.386C834.782 17.142 834.986 18.024 834.986 19.032C834.986 20.028 834.782 20.916 834.374 21.696C833.966 22.476 833.402 23.082 832.682 23.514C831.974 23.946 831.182 24.162 830.306 24.162C829.466 24.162 828.722 23.976 828.074 23.604C827.438 23.22 826.952 22.746 826.616 22.182V28.68H824.978V14.136H826.616V15.954ZM833.312 19.032C833.312 18.288 833.162 17.64 832.862 17.088C832.562 16.536 832.154 16.116 831.638 15.828C831.134 15.54 830.576 15.396 829.964 15.396C829.364 15.396 828.806 15.546 828.29 15.846C827.786 16.134 827.378 16.56 827.066 17.124C826.766 17.676 826.616 18.318 826.616 19.05C826.616 19.794 826.766 20.448 827.066 21.012C827.378 21.564 827.786 21.99 828.29 22.29C828.806 22.578 829.364 22.722 829.964 22.722C830.576 22.722 831.134 22.578 831.638 22.29C832.154 21.99 832.562 21.564 832.862 21.012C833.162 20.448 833.312 19.788 833.312 19.032Z" fill="white"/>
<path d="M904.802 21.21H899.33L898.322 24H896.594L901.13 11.526H903.02L907.538 24H905.81L904.802 21.21ZM904.334 19.878L902.066 13.542L899.798 19.878H904.334ZM911.153 15.972C911.489 15.384 911.981 14.904 912.629 14.532C913.277 14.16 914.015 13.974 914.843 13.974C915.731 13.974 916.529 14.184 917.237 14.604C917.945 15.024 918.503 15.618 918.911 16.386C919.319 17.142 919.523 18.024 919.523 19.032C919.523 20.028 919.319 20.916 918.911 21.696C918.503 22.476 917.939 23.082 917.219 23.514C916.511 23.946 915.719 24.162 914.843 24.162C913.991 24.162 913.241 23.976 912.593 23.604C911.957 23.232 911.477 22.758 911.153 22.182V24H909.515V10.68H911.153V15.972ZM917.849 19.032C917.849 18.288 917.699 17.64 917.399 17.088C917.099 16.536 916.691 16.116 916.175 15.828C915.671 15.54 915.113 15.396 914.501 15.396C913.901 15.396 913.343 15.546 912.827 15.846C912.323 16.134 911.915 16.56 911.603 17.124C911.303 17.676 911.153 18.318 911.153 19.05C911.153 19.794 911.303 20.448 911.603 21.012C911.915 21.564 912.323 21.99 912.827 22.29C913.343 22.578 913.901 22.722 914.501 22.722C915.113 22.722 915.671 22.578 916.175 22.29C916.691 21.99 917.099 21.564 917.399 21.012C917.699 20.448 917.849 19.788 917.849 19.032ZM925.981 24.162C925.057 24.162 924.217 23.952 923.461 23.532C922.717 23.112 922.129 22.518 921.697 21.75C921.277 20.97 921.067 20.07 921.067 19.05C921.067 18.042 921.283 17.154 921.715 16.386C922.159 15.606 922.759 15.012 923.515 14.604C924.271 14.184 925.117 13.974 926.053 13.974C926.989 13.974 927.835 14.184 928.591 14.604C929.347 15.012 929.941 15.6 930.373 16.368C930.817 17.136 931.039 18.03 931.039 19.05C931.039 20.07 930.811 20.97 930.355 21.75C929.911 22.518 929.305 23.112 928.537 23.532C927.769 23.952 926.917 24.162 925.981 24.162ZM925.981 22.722C926.569 22.722 927.121 22.584 927.637 22.308C928.153 22.032 928.567 21.618 928.879 21.066C929.203 20.514 929.365 19.842 929.365 19.05C929.365 18.258 929.209 17.586 928.897 17.034C928.585 16.482 928.177 16.074 927.673 15.81C927.169 15.534 926.623 15.396 926.035 15.396C925.435 15.396 924.883 15.534 924.379 15.81C923.887 16.074 923.491 16.482 923.191 17.034C922.891 17.586 922.741 18.258 922.741 19.05C922.741 19.854 922.885 20.532 923.173 21.084C923.473 21.636 923.869 22.05 924.361 22.326C924.853 22.59 925.393 22.722 925.981 22.722ZM941.941 14.136V24H940.303V22.542C939.991 23.046 939.553 23.442 938.989 23.73C938.437 24.006 937.825 24.144 937.153 24.144C936.385 24.144 935.695 23.988 935.083 23.676C934.471 23.352 933.985 22.872 933.625 22.236C933.277 21.6 933.103 20.826 933.103 19.914V14.136H934.723V19.698C934.723 20.67 934.969 21.42 935.461 21.948C935.953 22.464 936.625 22.722 937.477 22.722C938.353 22.722 939.043 22.452 939.547 21.912C940.051 21.372 940.303 20.586 940.303 19.554V14.136H941.941ZM946.704 15.486V21.3C946.704 21.78 946.806 22.122 947.01 22.326C947.214 22.518 947.568 22.614 948.072 22.614H949.278V24H947.802C946.89 24 946.206 23.79 945.75 23.37C945.294 22.95 945.066 22.26 945.066 21.3V15.486H943.788V14.136H945.066V11.652H946.704V14.136H949.278V15.486H946.704ZM957.664 11.454V19.392C957.664 20.508 957.934 21.336 958.474 21.876C959.026 22.416 959.788 22.686 960.76 22.686C961.72 22.686 962.47 22.416 963.01 21.876C963.562 21.336 963.838 20.508 963.838 19.392V11.454H965.476V19.374C965.476 20.418 965.266 21.3 964.846 22.02C964.426 22.728 963.856 23.256 963.136 23.604C962.428 23.952 961.63 24.126 960.742 24.126C959.854 24.126 959.05 23.952 958.33 23.604C957.622 23.256 957.058 22.728 956.638 22.02C956.23 21.3 956.026 20.418 956.026 19.374V11.454H957.664ZM971.7 24.162C970.944 24.162 970.266 24.036 969.666 23.784C969.066 23.52 968.592 23.16 968.244 22.704C967.896 22.236 967.704 21.702 967.668 21.102H969.36C969.408 21.594 969.636 21.996 970.044 22.308C970.464 22.62 971.01 22.776 971.682 22.776C972.306 22.776 972.798 22.638 973.158 22.362C973.518 22.086 973.698 21.738 973.698 21.318C973.698 20.886 973.506 20.568 973.122 20.364C972.738 20.148 972.144 19.938 971.34 19.734C970.608 19.542 970.008 19.35 969.54 19.158C969.084 18.954 968.688 18.66 968.352 18.276C968.028 17.88 967.866 17.364 967.866 16.728C967.866 16.224 968.016 15.762 968.316 15.342C968.616 14.922 969.042 14.592 969.594 14.352C970.146 14.1 970.776 13.974 971.484 13.974C972.576 13.974 973.458 14.25 974.13 14.802C974.802 15.354 975.162 16.11 975.21 17.07H973.572C973.536 16.554 973.326 16.14 972.942 15.828C972.57 15.516 972.066 15.36 971.43 15.36C970.842 15.36 970.374 15.486 970.026 15.738C969.678 15.99 969.504 16.32 969.504 16.728C969.504 17.052 969.606 17.322 969.81 17.538C970.026 17.742 970.29 17.91 970.602 18.042C970.926 18.162 971.37 18.3 971.934 18.456C972.642 18.648 973.218 18.84 973.662 19.032C974.106 19.212 974.484 19.488 974.796 19.86C975.12 20.232 975.288 20.718 975.3 21.318C975.3 21.858 975.15 22.344 974.85 22.776C974.55 23.208 974.124 23.55 973.572 23.802C973.032 24.042 972.408 24.162 971.7 24.162Z" fill="white"/>
<path d="M1037.77 17.718C1037.77 16.494 1038.05 15.396 1038.6 14.424C1039.15 13.44 1039.9 12.672 1040.85 12.12C1041.81 11.568 1042.87 11.292 1044.04 11.292C1045.41 11.292 1046.6 11.622 1047.62 12.282C1048.64 12.942 1049.38 13.878 1049.85 15.09H1047.89C1047.54 14.334 1047.04 13.752 1046.38 13.344C1045.73 12.936 1044.95 12.732 1044.04 12.732C1043.16 12.732 1042.38 12.936 1041.68 13.344C1040.98 13.752 1040.44 14.334 1040.04 15.09C1039.65 15.834 1039.45 16.71 1039.45 17.718C1039.45 18.714 1039.65 19.59 1040.04 20.346C1040.44 21.09 1040.98 21.666 1041.68 22.074C1042.38 22.482 1043.16 22.686 1044.04 22.686C1044.95 22.686 1045.73 22.488 1046.38 22.092C1047.04 21.684 1047.54 21.102 1047.89 20.346H1049.85C1049.38 21.546 1048.64 22.476 1047.62 23.136C1046.6 23.784 1045.41 24.108 1044.04 24.108C1042.87 24.108 1041.81 23.838 1040.85 23.298C1039.9 22.746 1039.15 21.984 1038.6 21.012C1038.05 20.04 1037.77 18.942 1037.77 17.718ZM1056.59 24.162C1055.67 24.162 1054.83 23.952 1054.07 23.532C1053.33 23.112 1052.74 22.518 1052.31 21.75C1051.89 20.97 1051.68 20.07 1051.68 19.05C1051.68 18.042 1051.89 17.154 1052.33 16.386C1052.77 15.606 1053.37 15.012 1054.13 14.604C1054.88 14.184 1055.73 13.974 1056.66 13.974C1057.6 13.974 1058.45 14.184 1059.2 14.604C1059.96 15.012 1060.55 15.6 1060.98 16.368C1061.43 17.136 1061.65 18.03 1061.65 19.05C1061.65 20.07 1061.42 20.97 1060.97 21.75C1060.52 22.518 1059.92 23.112 1059.15 23.532C1058.38 23.952 1057.53 24.162 1056.59 24.162ZM1056.59 22.722C1057.18 22.722 1057.73 22.584 1058.25 22.308C1058.76 22.032 1059.18 21.618 1059.49 21.066C1059.81 20.514 1059.98 19.842 1059.98 19.05C1059.98 18.258 1059.82 17.586 1059.51 17.034C1059.2 16.482 1058.79 16.074 1058.28 15.81C1057.78 15.534 1057.23 15.396 1056.65 15.396C1056.05 15.396 1055.49 15.534 1054.99 15.81C1054.5 16.074 1054.1 16.482 1053.8 17.034C1053.5 17.586 1053.35 18.258 1053.35 19.05C1053.35 19.854 1053.5 20.532 1053.78 21.084C1054.08 21.636 1054.48 22.05 1054.97 22.326C1055.46 22.59 1056 22.722 1056.59 22.722ZM1068.61 13.956C1069.81 13.956 1070.78 14.322 1071.53 15.054C1072.27 15.774 1072.64 16.818 1072.64 18.186V24H1071.02V18.42C1071.02 17.436 1070.78 16.686 1070.28 16.17C1069.79 15.642 1069.12 15.378 1068.27 15.378C1067.4 15.378 1066.71 15.648 1066.2 16.188C1065.69 16.728 1065.44 17.514 1065.44 18.546V24H1063.8V14.136H1065.44V15.54C1065.77 15.036 1066.2 14.646 1066.76 14.37C1067.32 14.094 1067.94 13.956 1068.61 13.956ZM1077.32 15.486V21.3C1077.32 21.78 1077.42 22.122 1077.62 22.326C1077.83 22.518 1078.18 22.614 1078.68 22.614H1079.89V24H1078.41C1077.5 24 1076.82 23.79 1076.36 23.37C1075.91 22.95 1075.68 22.26 1075.68 21.3V15.486H1074.4V14.136H1075.68V11.652H1077.32V14.136H1079.89V15.486H1077.32ZM1081.26 19.032C1081.26 18.024 1081.47 17.142 1081.87 16.386C1082.28 15.618 1082.84 15.024 1083.55 14.604C1084.27 14.184 1085.07 13.974 1085.94 13.974C1086.81 13.974 1087.56 14.16 1088.19 14.532C1088.83 14.904 1089.3 15.372 1089.61 15.936V14.136H1091.27V24H1089.61V22.164C1089.29 22.74 1088.8 23.22 1088.16 23.604C1087.52 23.976 1086.78 24.162 1085.92 24.162C1085.05 24.162 1084.26 23.946 1083.55 23.514C1082.84 23.082 1082.28 22.476 1081.87 21.696C1081.47 20.916 1081.26 20.028 1081.26 19.032ZM1089.61 19.05C1089.61 18.306 1089.46 17.658 1089.16 17.106C1088.86 16.554 1088.46 16.134 1087.94 15.846C1087.44 15.546 1086.88 15.396 1086.27 15.396C1085.65 15.396 1085.1 15.54 1084.59 15.828C1084.09 16.116 1083.69 16.536 1083.39 17.088C1083.09 17.64 1082.94 18.288 1082.94 19.032C1082.94 19.788 1083.09 20.448 1083.39 21.012C1083.69 21.564 1084.09 21.99 1084.59 22.29C1085.1 22.578 1085.65 22.722 1086.27 22.722C1086.88 22.722 1087.44 22.578 1087.94 22.29C1088.46 21.99 1088.86 21.564 1089.16 21.012C1089.46 20.448 1089.61 19.794 1089.61 19.05ZM1093.43 19.05C1093.43 18.03 1093.63 17.142 1094.04 16.386C1094.45 15.618 1095.01 15.024 1095.73 14.604C1096.46 14.184 1097.3 13.974 1098.23 13.974C1099.44 13.974 1100.44 14.268 1101.22 14.856C1102.01 15.444 1102.53 16.26 1102.79 17.304H1101.02C1100.85 16.704 1100.52 16.23 1100.03 15.882C1099.55 15.534 1098.95 15.36 1098.23 15.36C1097.3 15.36 1096.54 15.684 1095.96 16.332C1095.39 16.968 1095.1 17.874 1095.1 19.05C1095.1 20.238 1095.39 21.156 1095.96 21.804C1096.54 22.452 1097.3 22.776 1098.23 22.776C1098.95 22.776 1099.55 22.608 1100.03 22.272C1100.51 21.936 1100.84 21.456 1101.02 20.832H1102.79C1102.52 21.84 1101.99 22.65 1101.2 23.262C1100.41 23.862 1099.42 24.162 1098.23 24.162C1097.3 24.162 1096.46 23.952 1095.73 23.532C1095.01 23.112 1094.45 22.518 1094.04 21.75C1093.63 20.982 1093.43 20.082 1093.43 19.05ZM1106.97 15.486V21.3C1106.97 21.78 1107.07 22.122 1107.28 22.326C1107.48 22.518 1107.83 22.614 1108.34 22.614H1109.54V24H1108.07C1107.16 24 1106.47 23.79 1106.02 23.37C1105.56 22.95 1105.33 22.26 1105.33 21.3V15.486H1104.05V14.136H1105.33V11.652H1106.97V14.136H1109.54V15.486H1106.97Z" fill="white"/>
<path d="M1744 14L1744 13C1744 10.7909 1745.79 9 1748 9V9C1750.21 9 1752 10.7909 1752 13L1752 14" stroke="white" stroke-width="2" stroke-linecap="round"/>
<path fill-rule="evenodd" clip-rule="evenodd" d="M1739.59 13.5858C1739 14.1716 1739 15.1144 1739 17V20C1739 23.7712 1739 25.6569 1740.17 26.8284C1741.34 28 1743.23 28 1747 28H1749C1752.77 28 1754.66 28 1755.83 26.8284C1757 25.6569 1757 23.7712 1757 20V17C1757 15.1144 1757 14.1716 1756.41 13.5858C1755.83 13 1754.89 13 1753 13H1743C1741.11 13 1740.17 13 1739.59 13.5858ZM1746 18C1746 17.4477 1745.55 17 1745 17C1744.45 17 1744 17.4477 1744 18V20C1744 20.5523 1744.45 21 1745 21C1745.55 21 1746 20.5523 1746 20V18ZM1752 18C1752 17.4477 1751.55 17 1751 17C1750.45 17 1750 17.4477 1750 18V20C1750 20.5523 1750.45 21 1751 21C1751.55 21 1752 20.5523 1752 20V18Z" fill="white"/>
<circle cx="1756" cy="13" r="4" fill="#F79489"/>
</svg>
