<svg width="18" height="15" viewBox="0 0 18 15" fill="none" xmlns="http://www.w3.org/2000/svg">
<path fill-rule="evenodd" clip-rule="evenodd" d="M0.585786 0.585786C0 1.17157 0 2.11438 0 4V7C0 10.7712 0 12.6569 1.17157 13.8284C2.34315 15 4.22876 15 8 15H10C13.7712 15 15.6569 15 16.8284 13.8284C18 12.6569 18 10.7712 18 7V4C18 2.11438 18 1.17157 17.4142 0.585786C16.8284 0 15.8856 0 14 0H4C2.11438 0 1.17157 0 0.585786 0.585786ZM7 5C7 4.44772 6.55228 4 6 4C5.44772 4 5 4.44772 5 5V7C5 7.55228 5.44772 8 6 8C6.55228 8 7 7.55228 7 7V5ZM13 5C13 4.44772 12.5523 4 12 4C11.4477 4 11 4.44772 11 5V7C11 7.55228 11.4477 8 12 8C12.5523 8 13 7.55228 13 7V5Z" fill="white"/>
</svg>
