<svg width="176" height="15" viewBox="0 0 176 15" fill="none" xmlns="http://www.w3.org/2000/svg">
<path d="M1.352 1.242V11H0.0780001V1.242H1.352ZM7.26131 3.188C8.19465 3.188 8.95065 3.47267 9.52931 4.042C10.108 4.602 10.3973 5.414 10.3973 6.478V11H9.13731V6.66C9.13731 5.89467 8.94598 5.31133 8.56331 4.91C8.18065 4.49933 7.65798 4.294 6.99531 4.294C6.32331 4.294 5.78665 4.504 5.38531 4.924C4.99331 5.344 4.79731 5.95533 4.79731 6.758V11H3.52331V3.328H4.79731V4.42C5.04931 4.028 5.38998 3.72467 5.81931 3.51C6.25798 3.29533 6.73865 3.188 7.26131 3.188ZM15.1944 11.126C14.6064 11.126 14.0791 11.028 13.6124 10.832C13.1457 10.6267 12.7771 10.3467 12.5064 9.992C12.2357 9.628 12.0864 9.21267 12.0584 8.746H13.3744C13.4117 9.12867 13.5891 9.44133 13.9064 9.684C14.2331 9.92667 14.6577 10.048 15.1804 10.048C15.6657 10.048 16.0484 9.94067 16.3284 9.726C16.6084 9.51133 16.7484 9.24067 16.7484 8.914C16.7484 8.578 16.5991 8.33067 16.3004 8.172C16.0017 8.004 15.5397 7.84067 14.9144 7.682C14.3451 7.53267 13.8784 7.38333 13.5144 7.234C13.1597 7.07533 12.8517 6.84667 12.5904 6.548C12.3384 6.24 12.2124 5.83867 12.2124 5.344C12.2124 4.952 12.3291 4.59267 12.5624 4.266C12.7957 3.93933 13.1271 3.68267 13.5564 3.496C13.9857 3.3 14.4757 3.202 15.0264 3.202C15.8757 3.202 16.5617 3.41667 17.0844 3.846C17.6071 4.27533 17.8871 4.86333 17.9244 5.61H16.6504C16.6224 5.20867 16.4591 4.88667 16.1604 4.644C15.8711 4.40133 15.4791 4.28 14.9844 4.28C14.5271 4.28 14.1631 4.378 13.8924 4.574C13.6217 4.77 13.4864 5.02667 13.4864 5.344C13.4864 5.596 13.5657 5.806 13.7244 5.974C13.8924 6.13267 14.0977 6.26333 14.3404 6.366C14.5924 6.45933 14.9377 6.56667 15.3764 6.688C15.9271 6.83733 16.3751 6.98667 16.7204 7.136C17.0657 7.276 17.3597 7.49067 17.6024 7.78C17.8544 8.06933 17.9851 8.44733 17.9944 8.914C17.9944 9.334 17.8777 9.712 17.6444 10.048C17.4111 10.384 17.0797 10.65 16.6504 10.846C16.2304 11.0327 15.7451 11.126 15.1944 11.126ZM26.7928 6.87C26.7928 7.11267 26.7788 7.36933 26.7508 7.64H20.6188C20.6655 8.396 20.9222 8.98867 21.3888 9.418C21.8648 9.838 22.4388 10.048 23.1108 10.048C23.6615 10.048 24.1188 9.922 24.4828 9.67C24.8562 9.40867 25.1175 9.06333 25.2668 8.634H26.6388C26.4335 9.37133 26.0228 9.97333 25.4068 10.44C24.7908 10.8973 24.0255 11.126 23.1108 11.126C22.3828 11.126 21.7295 10.9627 21.1508 10.636C20.5815 10.3093 20.1335 9.84733 19.8068 9.25C19.4802 8.64333 19.3168 7.94333 19.3168 7.15C19.3168 6.35667 19.4755 5.66133 19.7928 5.064C20.1102 4.46667 20.5535 4.00933 21.1228 3.692C21.7015 3.36533 22.3642 3.202 23.1108 3.202C23.8388 3.202 24.4828 3.36067 25.0428 3.678C25.6028 3.99533 26.0322 4.434 26.3308 4.994C26.6388 5.54467 26.7928 6.17 26.7928 6.87ZM25.4768 6.604C25.4768 6.11867 25.3695 5.70333 25.1548 5.358C24.9402 5.00333 24.6462 4.73733 24.2728 4.56C23.9088 4.37333 23.5028 4.28 23.0548 4.28C22.4108 4.28 21.8602 4.48533 21.4028 4.896C20.9548 5.30667 20.6982 5.876 20.6328 6.604H25.4768ZM29.7485 4.574C29.9725 4.13533 30.2898 3.79467 30.7005 3.552C31.1205 3.30933 31.6292 3.188 32.2265 3.188V4.504H31.8905C30.4625 4.504 29.7485 5.27867 29.7485 6.828V11H28.4745V3.328H29.7485V4.574ZM35.2511 4.378V8.9C35.2511 9.27333 35.3305 9.53933 35.4891 9.698C35.6478 9.84733 35.9231 9.922 36.3151 9.922H37.2531V11H36.1051C35.3958 11 34.8638 10.8367 34.5091 10.51C34.1545 10.1833 33.9771 9.64667 33.9771 8.9V4.378H32.9831V3.328H33.9771V1.396H35.2511V3.328H37.2531V4.378H35.2511ZM49.1372 3.328L44.5172 14.612H43.2012L44.7132 10.916L41.6192 3.328H43.0332L45.4412 9.544L47.8212 3.328H49.1372ZM53.7638 11.126C53.0452 11.126 52.3918 10.9627 51.8038 10.636C51.2252 10.3093 50.7678 9.84733 50.4318 9.25C50.1052 8.64333 49.9418 7.94333 49.9418 7.15C49.9418 6.366 50.1098 5.67533 50.4458 5.078C50.7912 4.47133 51.2578 4.00933 51.8458 3.692C52.4338 3.36533 53.0918 3.202 53.8198 3.202C54.5478 3.202 55.2058 3.36533 55.7938 3.692C56.3818 4.00933 56.8438 4.46667 57.1798 5.064C57.5252 5.66133 57.6978 6.35667 57.6978 7.15C57.6978 7.94333 57.5205 8.64333 57.1658 9.25C56.8205 9.84733 56.3492 10.3093 55.7518 10.636C55.1545 10.9627 54.4918 11.126 53.7638 11.126ZM53.7638 10.006C54.2212 10.006 54.6505 9.89867 55.0518 9.684C55.4532 9.46933 55.7752 9.14733 56.0178 8.718C56.2698 8.28867 56.3958 7.766 56.3958 7.15C56.3958 6.534 56.2745 6.01133 56.0318 5.582C55.7892 5.15267 55.4718 4.83533 55.0798 4.63C54.6878 4.41533 54.2632 4.308 53.8058 4.308C53.3392 4.308 52.9098 4.41533 52.5178 4.63C52.1352 4.83533 51.8272 5.15267 51.5938 5.582C51.3605 6.01133 51.2438 6.534 51.2438 7.15C51.2438 7.77533 51.3558 8.30267 51.5798 8.732C51.8132 9.16133 52.1212 9.48333 52.5038 9.698C52.8865 9.90333 53.3065 10.006 53.7638 10.006ZM66.1769 3.328V11H64.9029V9.866C64.6603 10.258 64.3196 10.566 63.8809 10.79C63.4516 11.0047 62.9756 11.112 62.4529 11.112C61.8556 11.112 61.3189 10.9907 60.8429 10.748C60.3669 10.496 59.9889 10.1227 59.7089 9.628C59.4383 9.13333 59.3029 8.53133 59.3029 7.822V3.328H60.5629V7.654C60.5629 8.41 60.7543 8.99333 61.1369 9.404C61.5196 9.80533 62.0423 10.006 62.7049 10.006C63.3863 10.006 63.9229 9.796 64.3149 9.376C64.7069 8.956 64.9029 8.34467 64.9029 7.542V3.328H66.1769ZM69.602 4.574C69.826 4.13533 70.1433 3.79467 70.554 3.552C70.974 3.30933 71.4827 3.188 72.08 3.188V4.504H71.744C70.316 4.504 69.602 5.27867 69.602 6.828V11H68.328V3.328H69.602V4.574ZM84.2831 6.87C84.2831 7.11267 84.2691 7.36933 84.2411 7.64H78.1091C78.1557 8.396 78.4124 8.98867 78.8791 9.418C79.3551 9.838 79.9291 10.048 80.6011 10.048C81.1517 10.048 81.6091 9.922 81.9731 9.67C82.3464 9.40867 82.6077 9.06333 82.7571 8.634H84.1291C83.9237 9.37133 83.5131 9.97333 82.8971 10.44C82.2811 10.8973 81.5157 11.126 80.6011 11.126C79.8731 11.126 79.2197 10.9627 78.6411 10.636C78.0717 10.3093 77.6237 9.84733 77.2971 9.25C76.9704 8.64333 76.8071 7.94333 76.8071 7.15C76.8071 6.35667 76.9657 5.66133 77.2831 5.064C77.6004 4.46667 78.0437 4.00933 78.6131 3.692C79.1917 3.36533 79.8544 3.202 80.6011 3.202C81.3291 3.202 81.9731 3.36067 82.5331 3.678C83.0931 3.99533 83.5224 4.434 83.8211 4.994C84.1291 5.54467 84.2831 6.17 84.2831 6.87ZM82.9671 6.604C82.9671 6.11867 82.8597 5.70333 82.6451 5.358C82.4304 5.00333 82.1364 4.73733 81.7631 4.56C81.3991 4.37333 80.9931 4.28 80.5451 4.28C79.9011 4.28 79.3504 4.48533 78.8931 4.896C78.4451 5.30667 78.1884 5.876 78.1231 6.604H82.9671ZM95.1907 3.188C95.7881 3.188 96.3201 3.314 96.7867 3.566C97.2534 3.80867 97.6221 4.17733 97.8927 4.672C98.1634 5.16667 98.2987 5.76867 98.2987 6.478V11H97.0387V6.66C97.0387 5.89467 96.8474 5.31133 96.4647 4.91C96.0914 4.49933 95.5827 4.294 94.9387 4.294C94.2761 4.294 93.7487 4.50867 93.3567 4.938C92.9647 5.358 92.7687 5.96933 92.7687 6.772V11H91.5087V6.66C91.5087 5.89467 91.3174 5.31133 90.9347 4.91C90.5614 4.49933 90.0527 4.294 89.4087 4.294C88.7461 4.294 88.2187 4.50867 87.8267 4.938C87.4347 5.358 87.2387 5.96933 87.2387 6.772V11H85.9647V3.328H87.2387V4.434C87.4907 4.03267 87.8267 3.72467 88.2467 3.51C88.6761 3.29533 89.1474 3.188 89.6607 3.188C90.3047 3.188 90.8741 3.33267 91.3687 3.622C91.8634 3.91133 92.2321 4.336 92.4747 4.896C92.6894 4.35467 93.0441 3.93467 93.5387 3.636C94.0334 3.33733 94.5841 3.188 95.1907 3.188ZM99.9125 7.136C99.9125 6.352 100.071 5.666 100.389 5.078C100.706 4.48067 101.14 4.01867 101.691 3.692C102.251 3.36533 102.871 3.202 103.553 3.202C104.225 3.202 104.808 3.34667 105.303 3.636C105.797 3.92533 106.166 4.28933 106.409 4.728V3.328H107.697V11H106.409V9.572C106.157 10.02 105.779 10.3933 105.275 10.692C104.78 10.9813 104.201 11.126 103.539 11.126C102.857 11.126 102.241 10.958 101.691 10.622C101.14 10.286 100.706 9.81467 100.389 9.208C100.071 8.60133 99.9125 7.91067 99.9125 7.136ZM106.409 7.15C106.409 6.57133 106.292 6.06733 106.059 5.638C105.825 5.20867 105.508 4.882 105.107 4.658C104.715 4.42467 104.281 4.308 103.805 4.308C103.329 4.308 102.895 4.42 102.503 4.644C102.111 4.868 101.798 5.19467 101.565 5.624C101.331 6.05333 101.215 6.55733 101.215 7.136C101.215 7.724 101.331 8.23733 101.565 8.676C101.798 9.10533 102.111 9.43667 102.503 9.67C102.895 9.894 103.329 10.006 103.805 10.006C104.281 10.006 104.715 9.894 105.107 9.67C105.508 9.43667 105.825 9.10533 106.059 8.676C106.292 8.23733 106.409 7.72867 106.409 7.15ZM110.507 2.082C110.265 2.082 110.059 1.998 109.891 1.83C109.723 1.662 109.639 1.45667 109.639 1.214C109.639 0.971333 109.723 0.766 109.891 0.598C110.059 0.43 110.265 0.345999 110.507 0.345999C110.741 0.345999 110.937 0.43 111.095 0.598C111.263 0.766 111.347 0.971333 111.347 1.214C111.347 1.45667 111.263 1.662 111.095 1.83C110.937 1.998 110.741 2.082 110.507 2.082ZM111.123 3.328V11H109.849V3.328H111.123ZM114.569 0.64V11H113.295V0.64H114.569ZM119.997 7.136C119.997 6.352 120.155 5.666 120.473 5.078C120.79 4.48067 121.224 4.01867 121.775 3.692C122.335 3.36533 122.955 3.202 123.637 3.202C124.309 3.202 124.892 3.34667 125.387 3.636C125.881 3.92533 126.25 4.28933 126.493 4.728V3.328H127.781V11H126.493V9.572C126.241 10.02 125.863 10.3933 125.359 10.692C124.864 10.9813 124.285 11.126 123.623 11.126C122.941 11.126 122.325 10.958 121.775 10.622C121.224 10.286 120.79 9.81467 120.473 9.208C120.155 8.60133 119.997 7.91067 119.997 7.136ZM126.493 7.15C126.493 6.57133 126.376 6.06733 126.143 5.638C125.909 5.20867 125.592 4.882 125.191 4.658C124.799 4.42467 124.365 4.308 123.889 4.308C123.413 4.308 122.979 4.42 122.587 4.644C122.195 4.868 121.882 5.19467 121.649 5.624C121.415 6.05333 121.299 6.55733 121.299 7.136C121.299 7.724 121.415 8.23733 121.649 8.676C121.882 9.10533 122.195 9.43667 122.587 9.67C122.979 9.894 123.413 10.006 123.889 10.006C124.365 10.006 124.799 9.894 125.191 9.67C125.592 9.43667 125.909 9.10533 126.143 8.676C126.376 8.23733 126.493 7.72867 126.493 7.15ZM129.457 7.136C129.457 6.352 129.616 5.666 129.933 5.078C130.251 4.48067 130.685 4.01867 131.235 3.692C131.795 3.36533 132.421 3.202 133.111 3.202C133.709 3.202 134.264 3.342 134.777 3.622C135.291 3.89267 135.683 4.252 135.953 4.7V0.64H137.241V11H135.953V9.558C135.701 10.0153 135.328 10.3933 134.833 10.692C134.339 10.9813 133.76 11.126 133.097 11.126C132.416 11.126 131.795 10.958 131.235 10.622C130.685 10.286 130.251 9.81467 129.933 9.208C129.616 8.60133 129.457 7.91067 129.457 7.136ZM135.953 7.15C135.953 6.57133 135.837 6.06733 135.603 5.638C135.37 5.20867 135.053 4.882 134.651 4.658C134.259 4.42467 133.825 4.308 133.349 4.308C132.873 4.308 132.439 4.42 132.047 4.644C131.655 4.868 131.343 5.19467 131.109 5.624C130.876 6.05333 130.759 6.55733 130.759 7.136C130.759 7.724 130.876 8.23733 131.109 8.676C131.343 9.10533 131.655 9.43667 132.047 9.67C132.439 9.894 132.873 10.006 133.349 10.006C133.825 10.006 134.259 9.894 134.651 9.67C135.053 9.43667 135.37 9.10533 135.603 8.676C135.837 8.23733 135.953 7.72867 135.953 7.15ZM138.918 7.136C138.918 6.352 139.077 5.666 139.394 5.078C139.712 4.48067 140.146 4.01867 140.696 3.692C141.256 3.36533 141.882 3.202 142.572 3.202C143.17 3.202 143.725 3.342 144.238 3.622C144.752 3.89267 145.144 4.252 145.414 4.7V0.64H146.702V11H145.414V9.558C145.162 10.0153 144.789 10.3933 144.294 10.692C143.8 10.9813 143.221 11.126 142.558 11.126C141.877 11.126 141.256 10.958 140.696 10.622C140.146 10.286 139.712 9.81467 139.394 9.208C139.077 8.60133 138.918 7.91067 138.918 7.136ZM145.414 7.15C145.414 6.57133 145.298 6.06733 145.064 5.638C144.831 5.20867 144.514 4.882 144.112 4.658C143.72 4.42467 143.286 4.308 142.81 4.308C142.334 4.308 141.9 4.42 141.508 4.644C141.116 4.868 140.804 5.19467 140.57 5.624C140.337 6.05333 140.22 6.55733 140.22 7.136C140.22 7.724 140.337 8.23733 140.57 8.676C140.804 9.10533 141.116 9.43667 141.508 9.67C141.9 9.894 142.334 10.006 142.81 10.006C143.286 10.006 143.72 9.894 144.112 9.67C144.514 9.43667 144.831 9.10533 145.064 8.676C145.298 8.23733 145.414 7.72867 145.414 7.15ZM150.129 4.574C150.353 4.13533 150.671 3.79467 151.081 3.552C151.501 3.30933 152.01 3.188 152.607 3.188V4.504H152.271C150.843 4.504 150.129 5.27867 150.129 6.828V11H148.855V3.328H150.129V4.574ZM161.078 6.87C161.078 7.11267 161.064 7.36933 161.036 7.64H154.904C154.951 8.396 155.207 8.98867 155.674 9.418C156.15 9.838 156.724 10.048 157.396 10.048C157.947 10.048 158.404 9.922 158.768 9.67C159.141 9.40867 159.403 9.06333 159.552 8.634H160.924C160.719 9.37133 160.308 9.97333 159.692 10.44C159.076 10.8973 158.311 11.126 157.396 11.126C156.668 11.126 156.015 10.9627 155.436 10.636C154.867 10.3093 154.419 9.84733 154.092 9.25C153.765 8.64333 153.602 7.94333 153.602 7.15C153.602 6.35667 153.761 5.66133 154.078 5.064C154.395 4.46667 154.839 4.00933 155.408 3.692C155.987 3.36533 156.649 3.202 157.396 3.202C158.124 3.202 158.768 3.36067 159.328 3.678C159.888 3.99533 160.317 4.434 160.616 4.994C160.924 5.54467 161.078 6.17 161.078 6.87ZM159.762 6.604C159.762 6.11867 159.655 5.70333 159.44 5.358C159.225 5.00333 158.931 4.73733 158.558 4.56C158.194 4.37333 157.788 4.28 157.34 4.28C156.696 4.28 156.145 4.48533 155.688 4.896C155.24 5.30667 154.983 5.876 154.918 6.604H159.762ZM165.476 11.126C164.888 11.126 164.36 11.028 163.894 10.832C163.427 10.6267 163.058 10.3467 162.788 9.992C162.517 9.628 162.368 9.21267 162.34 8.746H163.656C163.693 9.12867 163.87 9.44133 164.188 9.684C164.514 9.92667 164.939 10.048 165.462 10.048C165.947 10.048 166.33 9.94067 166.61 9.726C166.89 9.51133 167.03 9.24067 167.03 8.914C167.03 8.578 166.88 8.33067 166.582 8.172C166.283 8.004 165.821 7.84067 165.196 7.682C164.626 7.53267 164.16 7.38333 163.796 7.234C163.441 7.07533 163.133 6.84667 162.872 6.548C162.62 6.24 162.494 5.83867 162.494 5.344C162.494 4.952 162.61 4.59267 162.844 4.266C163.077 3.93933 163.408 3.68267 163.838 3.496C164.267 3.3 164.757 3.202 165.308 3.202C166.157 3.202 166.843 3.41667 167.366 3.846C167.888 4.27533 168.168 4.86333 168.206 5.61H166.932C166.904 5.20867 166.74 4.88667 166.442 4.644C166.152 4.40133 165.76 4.28 165.266 4.28C164.808 4.28 164.444 4.378 164.174 4.574C163.903 4.77 163.768 5.02667 163.768 5.344C163.768 5.596 163.847 5.806 164.006 5.974C164.174 6.13267 164.379 6.26333 164.622 6.366C164.874 6.45933 165.219 6.56667 165.658 6.688C166.208 6.83733 166.656 6.98667 167.002 7.136C167.347 7.276 167.641 7.49067 167.884 7.78C168.136 8.06933 168.266 8.44733 168.276 8.914C168.276 9.334 168.159 9.712 167.926 10.048C167.692 10.384 167.361 10.65 166.932 10.846C166.512 11.0327 166.026 11.126 165.476 11.126ZM172.79 11.126C172.202 11.126 171.675 11.028 171.208 10.832C170.741 10.6267 170.373 10.3467 170.102 9.992C169.831 9.628 169.682 9.21267 169.654 8.746H170.97C171.007 9.12867 171.185 9.44133 171.502 9.684C171.829 9.92667 172.253 10.048 172.776 10.048C173.261 10.048 173.644 9.94067 173.924 9.726C174.204 9.51133 174.344 9.24067 174.344 8.914C174.344 8.578 174.195 8.33067 173.896 8.172C173.597 8.004 173.135 7.84067 172.51 7.682C171.941 7.53267 171.474 7.38333 171.11 7.234C170.755 7.07533 170.447 6.84667 170.186 6.548C169.934 6.24 169.808 5.83867 169.808 5.344C169.808 4.952 169.925 4.59267 170.158 4.266C170.391 3.93933 170.723 3.68267 171.152 3.496C171.581 3.3 172.071 3.202 172.622 3.202C173.471 3.202 174.157 3.41667 174.68 3.846C175.203 4.27533 175.483 4.86333 175.52 5.61H174.246C174.218 5.20867 174.055 4.88667 173.756 4.644C173.467 4.40133 173.075 4.28 172.58 4.28C172.123 4.28 171.759 4.378 171.488 4.574C171.217 4.77 171.082 5.02667 171.082 5.344C171.082 5.596 171.161 5.806 171.32 5.974C171.488 6.13267 171.693 6.26333 171.936 6.366C172.188 6.45933 172.533 6.56667 172.972 6.688C173.523 6.83733 173.971 6.98667 174.316 7.136C174.661 7.276 174.955 7.49067 175.198 7.78C175.45 8.06933 175.581 8.44733 175.59 8.914C175.59 9.334 175.473 9.712 175.24 10.048C175.007 10.384 174.675 10.65 174.246 10.846C173.826 11.0327 173.341 11.126 172.79 11.126Z" fill="#F79489"/>
</svg>
